<?xml version="1.0" encoding="UTF-8"?>
<svg version="1.1" viewBox="0 0 223.87 198.39" xmlns="http://www.w3.org/2000/svg">
 <g transform="translate(-90.55 -802.43)">
  <g fill="#f44800">
   <path d="m313.41 920.56c-0.50768-23.525-17.847-57.345-38.729-75.54s-37.398-13.874-36.89 9.6509c0.50765 23.525 17.847 57.345 38.729 75.54s37.398 13.874 36.89-9.6509z"/>
   <path d="m91.994 920.42c0.50768-23.525 17.847-57.345 38.729-75.54s37.398-13.874 36.89 9.6509c-0.50765 23.525-17.847 57.345-38.729 75.54s-37.398 13.874-36.89-9.6509z" stroke="#fd3301" stroke-width=".86449"/>
   <path d="m298.43 901.86c0 54.232-42.434 98.195-94.778 98.195-52.345 0-94.778-43.964-94.778-98.195 0-54.232 42.434-98.195 94.778-98.195 52.345 0 94.778 43.963 94.778 98.195z" stroke-width=".68938"/>
  </g>
  <g transform="matrix(.79106 0 0 .81568 -54.92 653.83)">
   <path d="m293.31 289.31s17.772 6.3413 27.022 6.3134c8.6569-0.026 25.254-6.0609 25.254-6.0609l-23.991 34.093z" fill="#fff"/>
  </g>
  <path d="m198.89 870.69c0 16.468-13.729 29.818-30.664 29.818s-30.664-13.35-30.664-29.818 13.729-29.818 30.664-29.818 30.664 13.35 30.664 29.818z" fill="#eee" stroke="#fd3301" stroke-width="1.1983"/>
  <path d="m267.52 861.8c0 20.665-17.368 37.418-38.792 37.418s-38.792-16.753-38.792-37.418 17.368-37.418 38.792-37.418 38.792 16.753 38.792 37.418z" fill="#eee" stroke="#fd3301" stroke-width="1.0807"/>
  <path d="m190.47 881.65c0 3.1537-2.6184 5.7103-5.8484 5.7103s-5.8484-2.5566-5.8484-5.7103c0-3.1538 2.6184-5.7104 5.8484-5.7104s5.8484 2.5566 5.8484 5.7104z" fill="#f44800" stroke-width=".92653"/>
  <path d="m220.31 878.18c0 5.5782-4.5221 10.1-10.1 10.1s-10.1-4.5221-10.1-10.1c0-5.5783 4.5221-10.1 10.1-10.1s10.1 4.5221 10.1 10.1z" fill="#f44800" stroke-width=".90189"/>
  <g transform="matrix(.91661 0 0 .91661 59.059 41.661)">
   <g transform="matrix(.52154 0 0 .52154 -13.586 784.39)">
    <path transform="matrix(.94083 0 0 .94083 5.2931 19.979)" d="m405 407.72c0 33.334-27.023 60.357-60.357 60.357s-60.357-27.023-60.357-60.357 27.023-60.357 60.357-60.357 60.357 27.023 60.357 60.357z" fill="#fff"/>
    <path transform="translate(-6.1714,-10.218)" d="m363.57 413.79c0 15.385-12.472 27.857-27.857 27.857s-27.857-12.472-27.857-27.857 12.472-27.857 27.857-27.857 27.857 12.472 27.857 27.857z" fill="#f44800"/>
   </g>
   <g fill="#f44800">
    <g stroke-width=".52154">
     <circle cx="126.58" cy="995.13" r="11.269"/>
     <circle cx="174.89" cy="1022.4" r="11.269"/>
     <circle cx="176.78" cy="969.6" r="11.269"/>
    </g>
    <g stroke-width=".57544">
     <rect transform="rotate(61.017)" x="915.59" y="340.72" width="18.176" height="4.7415"/>
     <rect transform="rotate(-63.434)" x="-850.99" y="583.77" width="18.176" height="4.7415"/>
     <rect transform="rotate(2.1791)" x="209.51" y="987.03" width="18.176" height="4.7415"/>
    </g>
   </g>
   <g fill="#fff" stroke-width=".57544">
    <path d="m133.21 995.13c0 4.6554-3.774 8.4294-8.4294 8.4294s-8.4293-3.774-8.4293-8.4294 3.774-8.4293 8.4293-8.4293c4.6554 0 8.4294 3.7739 8.4294 8.4293z"/>
    <path d="m186.25 968.56c0 4.6554-3.774 8.4293-8.4293 8.4293-4.6554 0-8.4294-3.774-8.4294-8.4293 0-4.6554 3.774-8.4293 8.4294-8.4293s8.4293 3.7739 8.4293 8.4293z"/>
    <path d="m184.36 1023.4c0 4.6554-3.774 8.4294-8.4293 8.4294-4.6554 0-8.4294-3.774-8.4294-8.4294s3.774-8.4294 8.4294-8.4294 8.4293 3.774 8.4293 8.4294z"/>
   </g>
  </g>
 </g>
</svg>
