<?xml version="1.0" standalone="no"?>
<!DOCTYPE svg PUBLIC "-//W3C//DTD SVG 20010904//EN"
 "http://www.w3.org/TR/2001/REC-SVG-20010904/DTD/svg10.dtd">
<svg version="1.0" xmlns="http://www.w3.org/2000/svg"
 width="896.000000pt" height="896.000000pt" viewBox="0 0 896.000000 896.000000"
 preserveAspectRatio="xMidYMid meet">
<metadata>
Created by potrace 1.14, written by Peter Selinger 2001-2017
</metadata>
<g transform="translate(0.000000,896.000000) scale(0.100000,-0.100000)"
fill="#000000" stroke="none">
<path d="M4315 8404 c-946 -71 -1756 -437 -2411 -1089 -263 -262 -461 -520
-645 -840 -34 -60 -93 -146 -129 -190 -437 -524 -837 -1297 -995 -1925 -142
-562 -123 -995 54 -1256 84 -123 201 -193 361 -216 95 -13 229 6 360 53 47 17
91 31 98 32 7 1 35 -48 65 -118 435 -993 1265 -1765 2262 -2105 251 -85 485
-138 780 -177 185 -23 627 -23 825 1 718 86 1346 352 1925 812 151 120 449
421 578 584 204 255 387 554 514 835 35 77 64 144 66 150 2 6 28 2 63 -9 198
-63 386 -61 516 5 56 28 143 112 184 176 190 294 173 859 -44 1504 -143 424
-346 831 -616 1239 -80 120 -142 227 -178 305 -118 263 -309 570 -504 815
-131 164 -429 464 -579 584 -346 275 -705 477 -1102 622 -234 85 -547 157
-813 189 -129 15 -529 27 -635 19z m1380 -854 c357 -41 662 -183 912 -424 219
-211 351 -442 419 -736 72 -311 27 -662 -124 -958 -206 -403 -593 -694 -1057
-792 -130 -27 -368 -37 -501 -20 -662 82 -1179 548 -1316 1183 -29 136 -31
407 -5 541 60 300 191 541 411 762 167 166 320 266 536 349 224 87 490 121
725 95z m-2385 -671 c222 -33 462 -152 640 -316 l64 -60 -17 -74 c-9 -41 -22
-108 -28 -149 -15 -100 -6 -392 16 -490 36 -164 114 -359 199 -495 l24 -39
-30 -61 c-149 -294 -456 -528 -798 -606 -123 -28 -339 -35 -462 -15 -320 53
-597 219 -785 472 -388 525 -258 1273 286 1638 262 175 571 243 891 195z m746
-2089 c173 -40 340 -38 539 6 l70 15 132 -68 132 -69 -279 -409 c-154 -226
-283 -411 -288 -413 -7 -2 -618 750 -645 794 -4 8 20 29 66 57 39 25 88 59
107 76 42 36 51 37 166 11z m1316 -1126 c66 -21 135 -86 169 -159 96 -201 -51
-435 -272 -435 -89 0 -149 23 -213 81 -131 120 -136 318 -10 442 90 89 195
112 326 71z m-631 -184 c90 -16 89 -15 76 -79 -8 -40 -7 -73 1 -123 47 -275
330 -425 583 -312 35 16 63 23 68 18 18 -19 83 -156 106 -225 32 -93 55 -216
55 -291 l0 -60 -147 6 c-82 4 -205 9 -275 12 l-127 6 -11 70 c-35 204 -207
384 -411 428 -55 12 -211 9 -254 -5 -19 -6 -36 21 -154 234 -73 133 -130 245
-126 251 13 21 171 62 320 84 47 7 224 -1 296 -14z m-644 -397 l132 -238 -54
-55 c-111 -115 -156 -224 -157 -380 0 -149 43 -256 149 -370 l54 -58 -123
-246 c-68 -135 -126 -246 -129 -246 -3 0 -35 22 -70 49 -84 63 -180 160 -236
239 -49 67 -123 205 -123 227 0 7 24 27 53 43 147 83 228 264 193 432 -8 39
-27 93 -43 121 -32 59 -115 139 -173 166 -22 10 -40 21 -40 26 0 4 14 37 30
74 42 93 129 220 203 295 66 68 175 158 192 158 6 0 69 -107 142 -237z m-649
-402 c64 -33 118 -86 146 -144 75 -155 12 -338 -142 -414 -76 -37 -181 -39
-260 -4 -66 30 -144 113 -166 177 -56 165 33 347 198 400 60 20 171 12 224
-15z m1975 -437 l197 -6 -6 -37 c-25 -136 -108 -322 -205 -455 -4 -4 -37 7
-75 25 -65 32 -74 34 -179 34 -103 0 -114 -2 -176 -32 -79 -39 -160 -120 -195
-197 -28 -61 -48 -156 -41 -199 3 -24 -1 -31 -22 -39 -37 -15 -284 -14 -361 1
-58 11 -220 58 -228 66 -2 2 51 114 119 250 119 238 124 246 148 241 60 -15
199 -18 254 -6 157 32 305 150 375 298 l35 74 81 -6 c45 -3 170 -8 279 -12z
m-96 -602 c66 -34 109 -78 143 -144 57 -114 37 -246 -51 -342 -64 -70 -129
-99 -224 -100 -60 -1 -80 4 -137 32 -253 124 -220 484 52 573 46 15 171 4 217
-19z"/>
<path d="M4668 5811 c-31 -10 -72 -28 -91 -40 -54 -33 -126 -116 -155 -179
-24 -51 -27 -69 -27 -167 0 -99 3 -115 27 -165 38 -77 82 -127 151 -171 204
-132 475 -53 580 169 30 62 32 75 32 172 0 99 -2 110 -33 172 -42 85 -129 168
-209 199 -81 31 -199 35 -275 10z"/>
<path d="M3701 5509 c-60 -15 -145 -97 -161 -159 -26 -97 17 -200 104 -255 43
-26 59 -30 120 -30 60 0 79 4 119 28 55 33 102 99 112 158 27 161 -127 296
-294 258z"/>
</g>
</svg>
